<svg width="73" height="61" viewBox="0 0 73 61" fill="none" xmlns="http://www.w3.org/2000/svg">
<rect y="0.75" width="73" height="60" rx="20" fill="#F3FDFB"/>
<path d="M18 14.75V47.75H62V14.75H18ZM21.3846 17.2885H58.6154V40.1346H21.3846V17.2885Z" fill="#39ABB0"/>
<path d="M36.1325 26.9625C35.8884 26.9625 35.7242 26.9062 35.642 26.7937C35.5576 26.6812 35.5166 26.4937 35.5166 26.2312V21.2437C35.5166 20.73 35.3797 20.2969 35.1059 19.9406C34.8326 19.5844 34.4615 19.2858 34.0223 19.0688C33.5538 18.837 33.0409 18.6722 32.5053 18.5812C31.9431 18.4817 31.3695 18.4314 30.7944 18.4312C30.1397 18.4312 29.5032 18.4819 28.8781 18.5812C28.2848 18.6703 27.7164 18.8483 27.2014 19.1062C26.7064 19.3575 26.3003 19.6875 25.9809 20.1C25.6616 20.5125 25.4791 21.0319 25.4334 21.6563H28.0341C28.0957 21.1313 28.3626 20.7431 28.8325 20.4938C29.3024 20.2444 29.9047 20.1187 30.6347 20.1187C30.8925 20.1187 31.1662 20.1356 31.4559 20.1656C31.7434 20.1975 32.008 20.2594 32.243 20.3531C32.4772 20.4464 32.6807 20.5847 32.8361 20.7562C32.9958 20.9306 33.0756 21.1556 33.0756 21.4313C33.0756 21.7444 32.9798 21.9788 32.7905 22.1344C32.5726 22.303 32.3054 22.4225 32.0148 22.4812C31.645 22.5619 31.267 22.6152 30.8856 22.6406C30.434 22.6752 29.9848 22.7284 29.5397 22.8C28.9922 22.8506 28.447 22.9219 27.9086 23.0156C27.3679 23.1094 26.882 23.2631 26.4486 23.475C26.0152 23.6887 25.6638 23.9812 25.3992 24.3562C25.1323 24.7312 25 25.2187 25 25.8187C25 26.2931 25.1095 26.7094 25.3308 27.0656C25.5521 27.4219 25.8486 27.7162 26.2205 27.9469C26.5923 28.1794 27.0235 28.3538 27.5094 28.4719C27.9953 28.59 28.504 28.65 29.0378 28.65C29.7382 28.65 30.4636 28.5563 31.2164 28.3688C31.9692 28.1813 32.6034 27.8812 33.1213 27.4687C33.2285 27.9075 33.4543 28.2131 33.8056 28.3875C34.2088 28.5735 34.6667 28.6644 35.1288 28.65C35.5647 28.64 35.9975 28.5865 36.4177 28.4906C36.5614 28.4588 36.68 28.4306 36.7712 28.4063V26.925C36.6515 26.948 36.5292 26.9606 36.4062 26.9625H36.1325ZM32.9159 25.1231C32.9159 25.4606 32.8156 25.7456 32.6194 25.9762C32.4223 26.2065 32.17 26.4011 31.878 26.5481C31.5814 26.6981 31.2643 26.805 30.9313 26.8669C30.374 26.9757 29.7953 26.9885 29.2317 26.9044C28.9511 26.8669 28.6933 26.8013 28.4561 26.7075C28.2188 26.6138 28.0181 26.4862 27.8516 26.3231C27.6817 26.155 27.5925 25.9416 27.6006 25.7231C27.6006 25.4494 27.6577 25.215 27.7717 25.02C27.8775 24.8341 28.0383 24.6729 28.2394 24.5512C28.4356 24.4331 28.6637 24.3394 28.9238 24.27C29.1815 24.2006 29.4484 24.1481 29.7222 24.1106C30.2961 24.0228 30.8746 23.9571 31.4559 23.9137C32.0331 23.8706 32.5213 23.7413 32.9159 23.5294V25.1231ZM48.7022 19.9406C48.2459 19.4719 47.6711 19.1025 46.9798 18.8344C46.2163 18.5538 45.3865 18.4161 44.5503 18.4312C43.7907 18.4312 43.0812 18.5531 42.4288 18.7969C41.774 19.0406 41.2653 19.4438 40.9003 20.0063H40.8547V18.6938H38.3909V31.9688H40.9916V27.1313H41.0372C41.2334 27.3938 41.482 27.6225 41.7786 27.8156C42.0752 28.0106 42.3968 28.17 42.7481 28.2937C43.0972 28.4175 43.4622 28.5094 43.8431 28.5656C44.2218 28.6219 44.6028 28.65 44.9838 28.65C45.8506 28.65 46.6034 28.5094 47.2422 28.2281C47.8809 27.9469 48.4102 27.5719 48.8277 27.1031C49.2451 26.6344 49.5577 26.0944 49.763 25.4813C49.9689 24.8643 50.0725 24.2273 50.0709 23.5875C50.0709 22.875 49.9569 22.2075 49.7288 21.5813C49.5006 20.955 49.1584 20.4094 48.7022 19.9406ZM47.2992 24.7969C47.1852 25.2038 46.9935 25.5656 46.7289 25.8844C46.462 26.2031 46.1244 26.4638 45.7138 26.6625C45.3031 26.8612 44.8013 26.9625 44.2081 26.9625C43.7363 26.9709 43.2688 26.8869 42.8444 26.7173C42.4199 26.5478 42.0507 26.2976 41.7672 25.9875C41.4662 25.6668 41.2453 25.3004 41.117 24.9094C40.9679 24.4668 40.8949 24.0092 40.9003 23.55C40.9003 22.5131 41.1786 21.6806 41.733 21.0562C42.2873 20.4319 43.1131 20.1187 44.2081 20.1187C44.7397 20.1187 45.2119 20.2163 45.6225 20.4094C46.0331 20.6044 46.3753 20.8594 46.6491 21.1781C46.9228 21.4969 47.1281 21.8625 47.265 22.275C47.4019 22.6875 47.4703 23.1113 47.4703 23.55C47.4703 23.9738 47.4133 24.39 47.2992 24.7969ZM52.3294 15H54.93V17.025H52.3294V15ZM52.3294 18.6938H54.93V28.3875H52.3294V18.6938Z" fill="#39ABB0"/>
</svg>
