<svg width="72" height="73" viewBox="0 0 72 73" fill="none" xmlns="http://www.w3.org/2000/svg">
<path d="M60.75 11.9207H11.25C10.0565 11.9207 8.91193 12.3948 8.06802 13.2387C7.22411 14.0826 6.75 15.2272 6.75 16.4207V56.9207C6.75 58.1142 7.22411 59.2588 8.06802 60.1027C8.91193 60.9466 10.0565 61.4207 11.25 61.4207H60.75C61.9435 61.4207 63.0881 60.9466 63.932 60.1027C64.7759 59.2588 65.25 58.1142 65.25 56.9207V16.4207C65.25 15.2272 64.7759 14.0826 63.932 13.2387C63.0881 12.3948 61.9435 11.9207 60.75 11.9207ZM26.1 41.6207C26.5774 41.9788 26.893 42.5118 26.9774 43.1025C27.0618 43.6933 26.908 44.2933 26.55 44.7707C26.192 45.2481 25.6589 45.5637 25.0682 45.6481C24.4775 45.7325 23.8774 45.5788 23.4 45.2207L14.4 38.4707C14.1206 38.2611 13.8938 37.9894 13.7375 37.6769C13.5813 37.3645 13.5 37.02 13.5 36.6707C13.5 36.3214 13.5813 35.9769 13.7375 35.6645C13.8938 35.3521 14.1206 35.0803 14.4 34.8707L23.4 28.1207C23.8774 27.7627 24.4775 27.6089 25.0682 27.6933C25.6589 27.7777 26.192 28.0933 26.55 28.5707C26.908 29.0481 27.0618 29.6482 26.9774 30.2389C26.893 30.8297 26.5774 31.3627 26.1 31.7207L19.4991 36.6707L26.1 41.6207ZM42.6628 21.5395L33.6628 53.0395C33.5861 53.3286 33.4525 53.5995 33.2699 53.8364C33.0872 54.0733 32.8591 54.2714 32.599 54.4191C32.3389 54.5668 32.0519 54.6612 31.7549 54.6966C31.4579 54.7321 31.1568 54.708 30.8692 54.6257C30.5816 54.5435 30.3133 54.4047 30.08 54.2175C29.8466 54.0303 29.653 53.7984 29.5104 53.5355C29.3677 53.2725 29.2789 52.9838 29.2492 52.6862C29.2194 52.3885 29.2494 52.0879 29.3372 51.802L38.3372 20.302C38.5102 19.7387 38.8972 19.2658 39.4151 18.9848C39.933 18.7039 40.5404 18.6372 41.1069 18.7993C41.6734 18.9614 42.1537 19.3392 42.4446 19.8515C42.7356 20.3639 42.8139 20.97 42.6628 21.5395ZM57.6 38.4707L48.6 45.2207C48.1226 45.5788 47.5225 45.7325 46.9318 45.6481C46.3411 45.5637 45.808 45.2481 45.45 44.7707C45.092 44.2933 44.9382 43.6933 45.0226 43.1025C45.107 42.5118 45.4226 41.9788 45.9 41.6207L52.5009 36.6707L45.9 31.7207C45.6636 31.5434 45.4645 31.3213 45.3139 31.0671C45.1634 30.8128 45.0644 30.5314 45.0226 30.2389C44.9808 29.9464 44.9971 29.6485 45.0704 29.3623C45.1437 29.0761 45.2727 28.8071 45.45 28.5707C45.6273 28.3343 45.8494 28.1352 46.1036 27.9846C46.3579 27.8341 46.6393 27.7351 46.9318 27.6933C47.2243 27.6515 47.5222 27.6678 47.8084 27.7411C48.0946 27.8144 48.3636 27.9434 48.6 28.1207L57.6 34.8707C57.8794 35.0803 58.1062 35.3521 58.2625 35.6645C58.4187 35.9769 58.5 36.3214 58.5 36.6707C58.5 37.02 58.4187 37.3645 58.2625 37.6769C58.1062 37.9894 57.8794 38.2611 57.6 38.4707Z" fill="#95DCE2"/>
</svg>
