<svg width="74" height="66" viewBox="0 0 74 66" fill="none" xmlns="http://www.w3.org/2000/svg">
<rect x="0.333344" width="73.5" height="65.5" rx="20" fill="#F3FDFB" fill-opacity="0.2"/>
<path d="M51.6663 14H22.5003C22.2267 13.9999 21.9557 14.0537 21.7029 14.1583C21.4501 14.2629 21.2203 14.4163 21.0268 14.6097C20.8333 14.8032 20.6797 15.0329 20.575 15.2856C20.4703 15.5384 20.4163 15.8094 20.4163 16.083V26.5H35.0003C35.5528 26.5 36.0826 26.7195 36.4732 27.1101C36.8639 27.5007 37.0833 28.0306 37.0833 28.583V39H53.7503V16.083C53.7503 15.8094 53.6964 15.5384 53.5917 15.2856C53.4869 15.0329 53.3334 14.8032 53.1399 14.6097C52.9464 14.4163 52.7166 14.2629 52.4638 14.1583C52.2109 14.0537 51.94 13.9999 51.6663 14ZM37.0833 39V43.167H53.7503C54.024 43.167 54.2949 43.1131 54.5477 43.0083C54.8005 42.9036 55.0302 42.7501 55.2236 42.5565C55.417 42.363 55.5704 42.1333 55.6751 41.8804C55.7797 41.6276 55.8335 41.3566 55.8333 41.083V39H37.0833Z" fill="#CFFD63"/>
<path d="M37.0833 39V28.583C37.0833 28.0306 36.8639 27.5007 36.4732 27.1101C36.0826 26.7195 35.5528 26.5 35.0003 26.5H20.4163V16.083C20.4163 15.8094 20.4703 15.5384 20.575 15.2856C20.6797 15.0329 20.8333 14.8032 21.0268 14.6097C21.2203 14.4163 21.4501 14.2629 21.7029 14.1583C21.9557 14.0537 22.2267 13.9999 22.5003 14H51.6663C51.94 13.9999 52.2109 14.0537 52.4638 14.1583C52.7166 14.2629 52.9464 14.4163 53.1399 14.6097C53.3334 14.8032 53.4869 15.0329 53.5917 15.2856C53.6964 15.5384 53.7503 15.8094 53.7503 16.083V39H37.0833ZM37.0833 39V43.167H53.7503C54.024 43.167 54.2949 43.1131 54.5477 43.0083C54.8005 42.9036 55.0302 42.7501 55.2236 42.5565C55.417 42.363 55.5704 42.1333 55.6751 41.8804C55.7797 41.6276 55.8335 41.3566 55.8333 41.083V39H37.0833Z" stroke="#57BFC5" stroke-width="2" stroke-linecap="round" stroke-linejoin="round"/>
<path d="M18.3333 49.417V28.583C18.3333 28.0306 18.5528 27.5007 18.9434 27.1101C19.3341 26.7195 19.8639 26.5 20.4163 26.5H35.0003C35.5528 26.5 36.0826 26.7195 36.4732 27.1101C36.8639 27.5007 37.0833 28.0306 37.0833 28.583V49.417C37.0833 49.9694 36.8639 50.4993 36.4732 50.8899C36.0826 51.2805 35.5528 51.5 35.0003 51.5H20.4163C19.8639 51.5 19.3341 51.2805 18.9434 50.8899C18.5528 50.4993 18.3333 49.9694 18.3333 49.417ZM25.6253 30.667H29.7913L30.8333 26.5H24.5833L25.6253 30.667Z" fill="#CFFD63" stroke="#57C0C6" stroke-width="2" stroke-linecap="round" stroke-linejoin="round"/>
</svg>
