<svg width="260" height="76" viewBox="0 0 260 76" fill="none" xmlns="http://www.w3.org/2000/svg">
<g clip-path="url(#clip0_71_102)">
<path d="M133.908 26.9363C145.852 26.9363 154.355 35.5962 154.355 46.5936C154.355 57.7686 145.763 66.2315 133.908 66.2315C122.05 66.2315 113.462 57.8509 113.462 46.5936C113.462 35.5163 122.022 26.9363 133.908 26.9363ZM176.84 26.9363C188.784 26.9363 197.286 35.5962 197.286 46.5936C197.286 57.7686 188.689 66.2315 176.84 66.2315C164.981 66.2315 156.394 57.8509 156.394 46.5936C156.394 35.5163 164.953 26.9363 176.84 26.9363ZM245.912 26.9741C253.114 26.9741 260 31.1247 260 41.0838V65.1563H249.79V43.1228C249.79 39.1222 247.73 36.1052 242.901 36.1052C238.389 36.1052 235.697 39.4255 235.697 43.4262V65.1578H225.252V43.1223C225.252 39.1222 223.116 36.1052 218.364 36.1052C213.772 36.1052 211.08 39.3505 211.08 43.4262V65.1578H200.556V28.0299H210.609V32.5589C212.745 28.9376 217.733 26.9741 222.006 26.9741C227.312 26.9741 231.585 29.1636 233.563 33.1613C236.648 28.6323 240.768 26.9741 245.912 26.9741ZM110.119 10.5239V65.1559H99.5927V10.5239H110.119ZM176.84 35.8972C170.653 35.8972 165.621 40.6967 165.621 46.5917C165.621 52.4867 170.653 57.2862 176.84 57.2862C183.026 57.2862 188.059 52.4867 188.059 46.5917C188.057 40.6967 183.023 35.8972 176.84 35.8972ZM133.908 36.023C127.792 36.023 122.816 40.7649 122.816 46.596C122.816 52.4272 127.792 57.1686 133.908 57.1686C140.025 57.1686 144.997 52.4267 144.997 46.596C144.997 40.7654 140.025 36.023 133.908 36.023Z" fill="white" fill-opacity="0.65"/>
<path d="M78.3768 33.6882H55.4582L75.3066 22.7687L70.948 15.5731L51.0991 26.4921L62.5564 7.58097L55.0042 3.425L43.5475 22.3361V0.5H34.8293V22.3385L23.368 3.425L15.8184 7.57903L27.2777 26.4902L7.42879 15.5726L3.06973 22.7668L22.9181 33.6858H0V41.9939H22.9161L3.06973 52.9119L7.42879 60.1081L27.2751 49.191L15.8163 68.1021L23.3675 72.2556L34.8268 53.3426V75.1811H43.5454V53.3445L55.0022 72.2556L62.5534 68.1021L51.0946 49.189L70.9434 60.1081L75.3025 52.9119L55.4562 41.9948H78.3722V33.6887L78.3768 33.6882ZM39.1879 49.1387C32.6143 49.1387 27.2858 44.0619 27.2858 37.7977C27.2858 31.5335 32.6148 26.4568 39.1879 26.4568C45.761 26.4568 51.0895 31.534 51.0895 37.7977C51.0895 44.0619 45.7615 49.1387 39.1879 49.1387Z" fill="white" fill-opacity="0.65"/>
</g>
<defs>
<clipPath id="clip0_71_102">
<rect width="260" height="75" fill="white" transform="translate(0 0.5)"/>
</clipPath>
</defs>
</svg>
