<svg width="73" height="61" viewBox="0 0 73 61" fill="none" xmlns="http://www.w3.org/2000/svg">
<rect y="0.648193" width="73" height="60.2037" rx="20" fill="#F3FDFB"/>
<path d="M27.62 39.123C31.2982 39.123 34.28 36.5277 34.28 33.3263C34.28 30.1249 31.2982 27.5297 27.62 27.5297C23.9417 27.5297 20.96 30.1249 20.96 33.3263C20.96 36.5277 23.9417 39.123 27.62 39.123Z" stroke="#39ABB0" stroke-width="1.5" stroke-linecap="round" stroke-linejoin="round"/>
<path d="M45.38 26.2415C49.0582 26.2415 52.04 23.6463 52.04 20.4449C52.04 17.2434 49.0582 14.6482 45.38 14.6482C41.7018 14.6482 38.72 17.2434 38.72 20.4449C38.72 23.6463 41.7018 26.2415 45.38 26.2415Z" stroke="#39ABB0" stroke-width="1.5" stroke-linecap="round" stroke-linejoin="round"/>
<path d="M35.76 33.9705C35.76 31.3942 37.98 26.2416 45.38 26.2416C52.78 26.2416 55 31.3942 55 33.9705M18 46.8519C18 44.2757 20.22 39.1231 27.62 39.1231C35.02 39.1231 37.24 44.2757 37.24 46.8519" stroke="#39ABB0" stroke-width="1.5" stroke-linecap="round" stroke-linejoin="round"/>
</svg>
