<svg width="79" height="72" viewBox="0 0 79 72" fill="none" xmlns="http://www.w3.org/2000/svg">
<path opacity="0.5" d="M10.4412 23.766C6.58334 27.279 6.58334 32.937 6.58334 44.25C6.58334 55.563 6.58334 61.221 10.4412 64.734C14.2957 68.25 20.5038 68.25 32.9167 68.25H46.0833C58.4962 68.25 64.7042 68.25 68.5588 64.734C72.4166 61.221 72.4166 55.563 72.4166 44.25C72.4166 32.937 72.4166 27.279 68.5588 23.766C64.7042 20.25 58.4962 20.25 46.0833 20.25H32.9167C20.5038 20.25 14.2957 20.25 10.4412 23.766Z" fill="#95DCE2"/>
<path d="M52.6667 32.25C53.5397 32.25 54.3769 31.9339 54.9942 31.3713C55.6115 30.8087 55.9583 30.0456 55.9583 29.25C55.9583 28.4544 55.6115 27.6913 54.9942 27.1287C54.3769 26.5661 53.5397 26.25 52.6667 26.25C51.7937 26.25 50.9564 26.5661 50.3391 27.1287C49.7218 27.6913 49.375 28.4544 49.375 29.25C49.375 30.0456 49.7218 30.8087 50.3391 31.3713C50.9564 31.9339 51.7937 32.25 52.6667 32.25ZM29.625 29.25C29.625 30.0456 29.2782 30.8087 28.6609 31.3713C28.0436 31.9339 27.2064 32.25 26.3334 32.25C25.4603 32.25 24.6231 31.9339 24.0058 31.3713C23.3885 30.8087 23.0417 30.0456 23.0417 29.25C23.0417 28.4544 23.3885 27.6913 24.0058 27.1287C24.6231 26.5661 25.4603 26.25 26.3334 26.25C27.2064 26.25 28.0436 26.5661 28.6609 27.1287C29.2782 27.6913 29.625 28.4544 29.625 29.25ZM39.6712 6H39.3288C36.3696 6 33.9042 6 31.9489 6.24C29.8818 6.492 28.0154 7.05 26.5177 8.415C25.0167 9.783 24.4044 11.484 24.1279 13.365C23.8646 15.15 23.8646 17.4 23.8646 20.094V20.328C25.3689 20.283 27.0081 20.265 28.8021 20.256V20.25C28.8021 17.358 28.8087 15.414 29.0226 13.965C29.2267 12.582 29.5789 11.988 30.0101 11.598C30.4381 11.208 31.0865 10.887 32.604 10.698C34.1938 10.506 36.3268 10.5 39.5 10.5C42.6732 10.5 44.8062 10.506 46.396 10.701C47.9135 10.887 48.5652 11.208 48.9932 11.601C49.4211 11.991 49.7733 12.582 49.9807 13.965C50.1913 15.414 50.1979 17.358 50.1979 20.25V20.256C51.844 20.2594 53.49 20.2834 55.1354 20.328V20.094C55.1354 17.4 55.1354 15.15 54.8721 13.368C54.5956 11.484 53.9833 9.783 52.4823 8.418C50.9846 7.05 49.1182 6.492 47.0511 6.24C45.0958 6 42.6271 6 39.6712 6Z" fill="#95DCE2"/>
</svg>
