<svg width="74" height="61" viewBox="0 0 74 61" fill="none" xmlns="http://www.w3.org/2000/svg">
<rect x="0.666687" y="0.75" width="73" height="60" rx="20" fill="#F3FDFB"/>
<path d="M24.6129 36.7882C24.5031 36.7883 24.3948 36.7531 24.297 36.6856L19.0407 33.0213C18.8787 32.9084 18.7562 32.7133 18.7001 32.4786C18.6441 32.2439 18.6589 31.9887 18.7414 31.7688L24.9163 15.2618C24.9573 15.1522 25.0139 15.0547 25.0828 14.9747C25.1517 14.8948 25.2316 14.834 25.3179 14.7959C25.4042 14.7579 25.4952 14.7432 25.5857 14.7529C25.6762 14.7625 25.7644 14.7962 25.8452 14.8521L30.8457 18.3054C31.0062 18.416 31.1284 18.6072 31.1861 18.8381C31.2439 19.0691 31.2326 19.3214 31.1546 19.5412L25.2349 36.2553C25.1949 36.3677 25.1387 36.4682 25.0697 36.5509C25.0007 36.6336 24.9202 36.6968 24.8329 36.7369C24.762 36.7696 24.6877 36.787 24.6129 36.7882ZM20.2814 31.7856L24.2977 34.5856L29.6202 19.5589L25.8342 16.9456L20.2814 31.7856Z" fill="#39ABB0"/>
<path d="M31.7573 23.8C31.6387 23.7999 31.5221 23.7585 31.4187 23.6796L29.4147 22.1517C29.3358 22.0916 29.2664 22.011 29.2104 21.9146C29.1545 21.8182 29.1132 21.7078 29.0888 21.5898C29.0644 21.4717 29.0574 21.3483 29.0682 21.2266C29.0791 21.1049 29.1075 20.9873 29.1519 20.8805C29.1964 20.7737 29.2559 20.6798 29.3271 20.6041C29.3984 20.5284 29.4799 20.4725 29.5672 20.4394C29.6544 20.4064 29.7455 20.397 29.8355 20.4116C29.9254 20.4263 30.0123 20.4648 30.0912 20.5249L31.7463 21.7858C32.3925 21.2557 33.791 20.1142 34.6861 19.4301C36.1475 18.3101 37.1764 18.4641 38.3577 19.9789C38.487 20.1502 38.5614 20.3834 38.5649 20.6282C38.5683 20.8731 38.5005 21.1099 38.3761 21.2878C38.2517 21.4656 38.0806 21.5701 37.8998 21.5788C37.719 21.5874 37.5429 21.4996 37.4095 21.3341C36.6757 20.3933 36.2937 20.3448 35.3647 21.0541C34.2144 21.9342 32.1394 23.646 32.118 23.6674C32.0091 23.7557 31.8843 23.8016 31.7573 23.8Z" fill="#39ABB0"/>
<path d="M49.8992 40.039C49.3967 40.0565 48.901 39.8794 48.4703 39.5285C47.8359 38.9554 45.0443 35.2501 44.4912 34.5137C44.3693 34.3381 44.3023 34.1054 44.3042 33.8644C44.3062 33.6234 44.377 33.3928 44.5017 33.2208C44.6265 33.0488 44.7955 32.9488 44.9735 32.9417C45.1515 32.9346 45.3247 33.021 45.4567 33.1828C46.698 34.8413 48.8275 37.6086 49.2337 37.9754C49.4955 38.1392 49.7851 38.2044 50.0719 38.1643C50.3588 38.1243 50.6324 37.9803 50.864 37.7477C50.9724 37.6204 51.0589 37.4625 51.1173 37.285C51.1757 37.1076 51.2046 36.9149 51.202 36.7207C51.1993 36.5265 51.1652 36.3354 51.1021 36.161C51.0389 35.9865 50.9482 35.833 50.8364 35.7112C50.1316 34.6378 47.2035 30.8252 46.5607 29.9889C44.318 28.8763 42.1432 27.5276 40.0563 25.955L39.3308 26.5972C39.1679 27.6205 38.7333 28.5274 38.1095 29.1461C37.8905 29.3796 37.6363 29.5451 37.3648 29.6309C37.0933 29.7167 36.8112 29.7207 36.5385 29.6426C36.2075 29.5868 35.8888 29.4381 35.6028 29.206C35.3167 28.974 35.0696 28.6636 34.8772 28.2949C34.5105 27.2345 34.4693 26.0205 34.7627 24.919C35.351 21.7326 36.3054 20.9122 37.626 19.7773L37.9164 19.5262C39.3715 18.2616 40.6204 17.5877 41.9913 18.423C42.8437 18.9429 45.8691 20.5286 46.7283 20.9785L49.6082 19.7008C49.7807 19.6298 49.9669 19.653 50.1269 19.7656C50.2869 19.8781 50.4079 20.071 50.4641 20.3029C50.5203 20.5348 50.5071 20.7873 50.4275 21.0062C50.3478 21.2251 50.2079 21.3931 50.0378 21.4741L46.9242 22.8554C46.7734 22.922 46.6104 22.9167 46.4621 22.8405C46.2987 22.7546 42.452 20.7517 41.4279 20.1264C40.8135 19.753 40.1645 19.7913 38.6639 21.0961L38.3674 21.3528C37.1626 22.3878 36.5578 22.9086 36.1027 25.3717C35.8696 26.6336 35.9771 27.145 36.062 27.3317C36.1709 27.5781 36.4233 27.678 36.8254 27.8142C36.9117 27.8339 37.0001 27.8274 37.0843 27.7951C37.1686 27.7628 37.2464 27.7056 37.3123 27.6276C37.5068 27.4292 37.6692 27.1791 37.7896 26.8926C37.91 26.6061 37.9857 26.2892 38.0122 25.9616C38.0212 25.8209 38.0537 25.6848 38.1072 25.5635C38.1607 25.4422 38.2339 25.339 38.3212 25.2616L39.6487 24.0865C39.7533 23.9944 39.8745 23.9425 39.9992 23.9362C40.1239 23.93 40.2476 23.9697 40.3569 24.051C40.4038 24.0856 45.0532 27.5268 47.0897 28.251C47.2029 28.292 47.3067 28.3706 47.3917 28.4797C47.5407 28.6729 51.0467 33.2164 51.8701 34.4736C52.0983 34.7725 52.2792 35.131 52.4019 35.5274C52.5246 35.9237 52.5866 36.3497 52.584 36.7794C52.5814 37.2092 52.5144 37.6337 52.3869 38.0274C52.2595 38.421 52.0743 38.7755 51.8425 39.0693C51.3119 39.7208 50.6153 40.0684 49.8992 40.039Z" fill="#39ABB0"/>
<path d="M51.3543 36.0248C51.1963 36.0246 51.0431 35.951 50.9204 35.8163C50.7976 35.6816 50.7128 35.4939 50.6801 35.2847C50.6474 35.0754 50.6688 34.8573 50.7406 34.6669C50.8125 34.4764 50.9306 34.3251 51.075 34.2384L53.4942 32.788C53.5773 32.7348 53.6675 32.7047 53.7594 32.6994C53.8513 32.6942 53.943 32.7138 54.0292 32.7572C54.1154 32.8006 54.1943 32.8669 54.2612 32.9522C54.3282 33.0375 54.3819 33.14 54.4191 33.2538C54.4564 33.3676 54.4765 33.4903 54.4782 33.6148C54.4798 33.7392 54.4631 33.8629 54.429 33.9784C54.3949 34.094 54.344 34.1991 54.2794 34.2877C54.2148 34.3763 54.1377 34.4464 54.0528 34.4941L51.6329 35.9482C51.545 35.9997 51.4501 36.0257 51.3543 36.0248Z" fill="#39ABB0"/>
<path d="M54.5175 36.7883C54.3801 36.7882 54.2458 36.7325 54.1319 36.6284C54.018 36.5243 53.9297 36.3765 53.8783 36.204L48.673 18.7264C48.6382 18.6098 48.6212 18.485 48.6229 18.3593C48.6247 18.2336 48.6452 18.1097 48.6832 17.995C48.7212 17.8803 48.7759 17.7771 48.8441 17.6918C48.9122 17.6064 48.9924 17.5405 49.0799 17.4981L54.6424 14.8045C54.8106 14.7231 54.9957 14.7332 55.1586 14.8328C55.3214 14.9324 55.4494 15.1136 55.5154 15.3384L60.6186 32.6741C60.652 32.7887 60.6683 32.9112 60.6665 33.0343C60.6648 33.1575 60.6451 33.279 60.6085 33.3918C60.5718 33.5046 60.5191 33.6065 60.4533 33.6915C60.3874 33.7766 60.3098 33.8432 60.2248 33.8875L54.7644 36.7229C54.6858 36.765 54.6021 36.7872 54.5175 36.7883ZM50.2184 18.928L54.9017 34.6519L59.0766 32.4865L54.4803 16.8653L50.2184 18.928ZM46.7924 42.8699C46.2239 42.8929 45.6688 42.6344 45.2311 42.1428C44.3077 41.0321 41.934 37.8215 41.8334 37.6852C41.7077 37.5092 41.6382 37.2734 41.6398 37.0287C41.6414 36.784 41.7139 36.5499 41.8418 36.3768C41.9696 36.2038 42.1426 36.1056 42.3234 36.1035C42.5042 36.1014 42.6784 36.1955 42.8085 36.3655C42.8326 36.3981 45.2546 39.6741 46.1469 40.7521C46.3319 40.9046 46.5413 40.9945 46.7574 41.014C46.9736 41.0335 47.19 40.9821 47.3882 40.8641C47.7121 40.7146 47.9993 40.4477 48.2187 40.0923C48.4381 39.737 48.5812 39.3069 48.6323 38.8491C48.6477 38.7283 48.6805 38.6128 48.7289 38.5092C48.7773 38.4055 48.8403 38.3158 48.9143 38.2451C48.9883 38.1745 49.0718 38.1242 49.1602 38.0972C49.2485 38.0703 49.3399 38.0671 49.4292 38.0879C49.5184 38.1088 49.6038 38.1532 49.6803 38.2187C49.7569 38.2841 49.8232 38.3694 49.8754 38.4695C49.9276 38.5697 49.9648 38.6828 49.9847 38.8023C50.0046 38.9219 50.007 39.0456 49.9916 39.1664C49.8978 39.9505 49.6489 40.6856 49.2713 41.2936C48.8937 41.9016 48.4014 42.3599 47.8468 42.6197C47.5082 42.7824 47.1518 42.867 46.7924 42.8699Z" fill="#39ABB0"/>
<path d="M43.5829 45.1323C43.0156 45.165 42.4612 44.8972 42.0375 44.3856L39.588 41.0704L40.5638 39.7498L43.0133 43.065C43.1649 43.1802 43.3326 43.251 43.5057 43.2728C43.6788 43.2947 43.8534 43.2671 44.0181 43.1919C44.3344 43.0868 44.6241 42.8685 44.8568 42.56C45.0895 42.2515 45.2566 41.864 45.3408 41.4382C45.3663 41.3193 45.409 41.2086 45.4664 41.1123C45.5238 41.016 45.5948 40.9362 45.6752 40.8774C45.7556 40.8186 45.8439 40.782 45.9349 40.7698C46.0258 40.7575 46.1177 40.7699 46.2051 40.8062C46.2925 40.8424 46.3737 40.9018 46.444 40.9809C46.5143 41.0601 46.5722 41.1573 46.6145 41.267C46.6567 41.3767 46.6825 41.4967 46.6902 41.6199C46.6979 41.7432 46.6874 41.8673 46.6593 41.9851C46.4675 42.8896 46.0639 43.6854 45.5093 44.2529C44.9546 44.8204 44.2782 45.129 43.5829 45.1323Z" fill="#39ABB0"/>
<path d="M40.9541 47.6252C40.3904 47.6415 39.839 47.3998 39.3894 46.9392C38.7681 46.2661 38.144 45.5978 37.5171 44.9344C37.4442 44.8597 37.383 44.7661 37.3372 44.6591C37.2913 44.5521 37.2615 44.4339 37.2497 44.3112C37.2379 44.1885 37.2442 44.0639 37.2683 43.9445C37.2924 43.8252 37.3338 43.7135 37.3901 43.616C37.4463 43.5185 37.5164 43.4371 37.5961 43.3766C37.6758 43.316 37.7636 43.2775 37.8544 43.2633C37.9453 43.2492 38.0373 43.2595 38.1251 43.2939C38.2129 43.3283 38.2948 43.3859 38.366 43.4635C38.366 43.4635 39.2273 44.3735 40.2514 45.4823C40.4696 45.658 40.7177 45.7541 40.9716 45.7612C41.2254 45.7682 41.4763 45.6859 41.6996 45.5224C41.8993 45.4062 42.0682 45.2109 42.1842 44.9621C42.3002 44.7134 42.3577 44.4229 42.3492 44.129C42.3437 43.8816 42.4109 43.6413 42.5363 43.461C42.6616 43.2807 42.8347 43.1752 43.0175 43.1676C43.1997 43.1633 43.3761 43.2555 43.5088 43.4247C43.6415 43.5938 43.7201 43.8265 43.7278 44.073C43.744 44.7231 43.6189 45.3654 43.3678 45.92C43.1167 46.4747 42.7508 46.9174 42.3154 47.1931C41.8922 47.4766 41.4264 47.6245 40.9541 47.6252Z" fill="#39ABB0"/>
<path d="M35.7861 47.193C35.5619 47.1919 35.3401 47.1316 35.133 47.0156C34.5707 46.6422 34.1071 46.0432 33.8055 45.3002C33.3161 45.4287 32.8089 45.3256 32.369 45.008C32 44.6807 31.6828 44.2573 31.4358 43.7625C31.1889 43.2677 31.0171 42.7114 30.9305 42.1259C30.8941 41.8875 30.928 41.6394 31.0249 41.4343C31.5856 40.2508 32.4311 38.4112 32.5573 38.0276C32.6708 37.7216 32.8319 37.4524 33.0295 37.2385C33.2271 37.0245 33.4565 36.8709 33.702 36.7882C34.036 36.6697 34.3854 36.6538 34.7245 36.7417C35.0636 36.8295 35.3839 37.0189 35.6619 37.2959C35.9701 37.572 36.2175 37.9554 36.3782 38.4058C36.5389 38.8561 36.6069 39.3568 36.575 39.8551C36.903 39.8742 37.2242 39.9884 37.5168 40.1898C37.8095 40.3912 38.0668 40.6752 38.2715 41.0227C38.4702 41.4431 38.5971 41.9183 38.6428 42.4135C38.6885 42.9088 38.6519 43.4116 38.5356 43.8852C38.1739 45.2516 37.4312 46.3719 36.4667 47.0063C36.2514 47.1295 36.0199 47.193 35.7861 47.193ZM34.9668 44.28C35.1833 44.7756 35.5702 45.4868 35.9323 45.2824C36.5334 44.8587 36.9961 44.1469 37.2301 43.286C37.2762 43.0955 37.2938 42.8945 37.282 42.6947C37.2701 42.4949 37.2291 42.3003 37.1612 42.1222C37.0563 41.9831 36.9317 41.8741 36.795 41.8016C36.6583 41.7291 36.5121 41.6947 36.3654 41.7003L34.9668 44.28ZM32.3525 42.0867C32.4622 42.6053 32.7 43.0573 33.0262 43.3672C33.1281 43.438 33.2395 43.4797 33.3538 43.4898C33.468 43.4999 33.5825 43.4782 33.6903 43.426L35.1627 40.01C35.2212 39.7989 35.2249 39.5672 35.1733 39.3528C35.1217 39.1384 35.0177 38.9542 34.8785 38.8303C34.7726 38.7173 34.6504 38.6356 34.5198 38.5904C34.3891 38.5453 34.2529 38.5376 34.12 38.568C34.0026 38.5942 33.8954 38.6743 33.8165 38.7948C33.6345 39.3408 32.7586 41.2224 32.3525 42.0867Z" fill="#39ABB0"/>
<path d="M30.5153 43.5448C30.3519 43.5454 30.1893 43.514 30.0326 43.4514C28.8513 42.9708 28.3885 40.9006 28.3396 40.6664C28.3148 40.5475 28.3078 40.4232 28.3188 40.3007C28.3298 40.1781 28.3586 40.0597 28.4037 39.9524C28.9898 38.5743 29.6382 37.2465 30.345 35.9764C30.6998 35.3516 31.2139 34.9283 31.787 34.789C32.36 34.6497 32.9509 34.8045 33.4441 35.2232C34.0951 35.8345 34.5723 37.1645 33.7738 38.9024C33.726 39.0065 33.6635 39.097 33.5899 39.1685C33.5163 39.24 33.4331 39.2912 33.3448 39.3191C33.2566 39.3471 33.1652 39.3512 33.0758 39.3314C32.9864 39.3115 32.9008 39.268 32.8238 39.2034C32.7468 39.1387 32.68 39.0542 32.6272 38.9546C32.5743 38.855 32.5365 38.7422 32.5159 38.6229C32.4952 38.5035 32.4921 38.3798 32.5068 38.2588C32.5215 38.1378 32.5536 38.0219 32.6014 37.9177C32.7786 37.5304 32.9324 37.0161 32.6573 36.7576C32.4562 36.6089 32.2223 36.5631 31.9983 36.6286C31.7743 36.694 31.5752 36.8664 31.4373 37.1141C30.8315 38.2036 30.2709 39.3378 29.7581 40.5114C29.9091 40.9996 30.1664 41.5586 30.4291 41.6641C30.6615 41.7574 30.9808 41.4345 31.1539 41.2348C31.2923 41.0729 31.4726 40.9921 31.6551 41.0101C31.8376 41.0281 32.0073 41.1435 32.1269 41.3309C32.2466 41.5183 32.3063 41.7623 32.293 42.0093C32.2796 42.2562 32.1944 42.4859 32.0559 42.6478C31.6413 43.1929 31.0928 43.5122 30.5153 43.5448Z" fill="#39ABB0"/>
<path d="M29.0016 41.3429C28.9258 41.3428 28.8506 41.3258 28.7789 41.2925C28.6623 41.2393 25.9135 39.9392 25.9135 37.0253C25.9134 36.9275 25.9246 36.8302 25.9466 36.7369C26.1961 35.8075 26.5379 34.9284 26.9624 34.1236C27.2784 33.6126 27.7147 33.2646 28.1981 33.1381C28.6814 33.0117 29.1822 33.1145 29.6161 33.4292C30.0245 33.6742 30.3503 34.1175 30.529 34.6716C30.7078 35.2258 30.7265 35.8505 30.5816 36.4224C30.1305 38.388 29.6678 40.6345 29.663 40.6579C29.6225 40.8541 29.5356 41.027 29.4157 41.1502C29.2958 41.2734 29.1494 41.3401 28.9989 41.3401L29.0016 41.3429ZM27.2983 37.17C27.3672 38.0436 28.0279 38.7081 28.5575 39.1067C28.7375 38.2555 29.0044 37.0169 29.2664 35.8717C29.2905 35.799 29.3028 35.7201 29.3025 35.6404C29.3023 35.5607 29.2894 35.482 29.2649 35.4096C29.2403 35.3371 29.2046 35.2726 29.1602 35.2203C29.1158 35.168 29.0636 35.1292 29.0071 35.1064C28.8647 34.9976 28.7016 34.9484 28.5384 34.965C28.3753 34.9816 28.2195 35.0633 28.0906 35.1997C27.7709 35.8126 27.505 36.4738 27.2983 37.17Z" fill="#39ABB0"/>
<path d="M27.1693 36.3486C27.0305 36.3484 26.8949 36.2915 26.7804 36.1853L24.9715 34.5053C24.8205 34.3654 24.7168 34.1501 24.6831 33.9067C24.6494 33.6633 24.6885 33.4118 24.7918 33.2075C24.8952 33.0031 25.0543 32.8627 25.2341 32.8171C25.4139 32.7715 25.5998 32.8245 25.7508 32.9643L27.5596 34.6443C27.6815 34.7569 27.7734 34.9193 27.822 35.1078C27.8706 35.2963 27.8733 35.5009 27.8296 35.6916C27.7859 35.8823 27.6982 36.049 27.5794 36.1673C27.4605 36.2855 27.3168 36.3491 27.1693 36.3486Z" fill="#39ABB0"/>
</svg>
