<svg width="100" height="114" viewBox="0 0 100 114" fill="none" xmlns="http://www.w3.org/2000/svg">
<path d="M49.701 12.1002C47.4283 12.1002 45.2487 13.0253 43.6417 14.6719C42.0347 16.3185 41.1318 18.5517 41.1318 20.8803C41.1318 23.209 42.0347 25.4422 43.6417 27.0888C45.2487 28.7354 47.4283 29.6605 49.701 29.6605C51.9736 29.6605 54.1532 28.7354 55.7603 27.0888C57.3673 25.4422 58.2701 23.209 58.2701 20.8803C58.2701 18.5517 57.3673 16.3185 55.7603 14.6719C54.1532 13.0253 51.9736 12.1002 49.701 12.1002ZM34.2765 20.8803C34.276 18.1903 34.9457 15.5446 36.222 13.1939C37.4984 10.8431 39.3393 8.8651 41.5703 7.4471C43.8013 6.02909 46.3487 5.21805 48.9712 5.09078C51.5936 4.9635 54.2044 5.5242 56.5563 6.71977C58.9079 5.52562 61.518 4.96606 64.1396 5.09404C66.7613 5.22203 69.3076 6.03333 71.5378 7.45117C73.768 8.869 75.6082 10.8465 76.8842 13.1964C78.1603 15.5464 78.83 18.1911 78.83 20.8803C78.83 23.5695 78.1603 26.2143 76.8842 28.5642C75.6082 30.9142 73.768 32.8917 71.5378 34.3095C69.3076 35.7274 66.7613 36.5387 64.1396 36.6666C61.518 36.7946 58.9079 36.2351 56.5563 35.0409C54.2044 36.2365 51.5936 36.7972 48.9712 36.6699C46.3487 36.5426 43.8013 35.7316 41.5703 34.3136C39.3393 32.8956 37.4984 30.9176 36.222 28.5668C34.9457 26.2161 34.276 23.5704 34.2765 20.8803ZM62.5547 29.6183C62.8357 29.6464 63.1214 29.6605 63.4116 29.6605C64.5714 29.6579 65.7187 29.4141 66.7839 28.9438C67.8491 28.4735 68.8101 27.7866 69.6085 26.9246C70.407 26.0626 71.0263 25.0434 71.4291 23.929C71.8318 22.8145 72.0095 21.6278 71.9514 20.4409C71.8934 19.2539 71.6008 18.0914 71.0913 17.0238C70.5818 15.9561 69.8661 15.0055 68.9875 14.2297C68.109 13.4538 67.0858 12.8687 65.9801 12.5099C64.8743 12.1511 63.709 12.0261 62.5547 12.1424C64.2316 14.7326 65.1258 17.772 65.1254 20.8803C65.1258 23.9886 64.2316 27.0281 62.5547 29.6183ZM28.9123 48.0987C28.3495 48.0972 27.7919 48.2093 27.2714 48.4287C26.7509 48.648 26.2777 48.9703 25.8788 49.3771L18.8521 56.5768V70.049H38.1395L58.0302 64.9565L70.1366 59.6604C70.549 59.432 70.8646 59.0557 71.0228 58.6036C71.181 58.1516 71.1708 57.6556 70.9941 57.2107C70.8174 56.7659 70.4866 56.4036 70.0652 56.1932C69.6438 55.9829 69.1615 55.9394 68.7107 56.071L68.6422 56.0886L46.6641 61.2689H34.2765V54.2448H44.9879C45.7834 54.2448 46.5462 53.921 47.1087 53.3447C47.6712 52.7684 47.9871 51.9868 47.9871 51.1717C47.9871 50.3567 47.6712 49.5751 47.1087 48.9988C46.5462 48.4225 45.7834 48.0987 44.9879 48.0987H28.9123ZM54.7979 52.1446L66.9729 49.2752C68.2696 48.9259 69.6272 48.8856 70.9415 49.1576C72.2557 49.4296 73.4917 50.0065 74.5544 50.8441C75.6172 51.6818 76.4784 52.7578 77.0721 53.9896C77.6658 55.2214 77.9761 56.5762 77.9791 57.95C77.9777 59.6176 77.5237 61.252 76.6678 62.6705C75.8119 64.0889 74.5878 65.2355 73.1324 65.982L73.0399 66.0312L60.2204 71.6329L38.9827 77.0731H0V51.6107H14.0054L21.0389 44.404C22.0752 43.3458 23.3048 42.5071 24.6575 41.9358C26.0102 41.3646 27.4595 41.0719 28.9225 41.0746H44.9879C46.3622 41.0744 47.7214 41.3688 48.978 41.9387C50.2347 42.5087 51.3611 43.3417 52.285 44.3842C53.2088 45.4267 53.9096 46.6556 54.3424 47.9921C54.7751 49.3286 54.9303 50.743 54.7979 52.1446ZM11.9968 58.6348H6.85531V70.049H11.9968V58.6348Z" fill="#95DCE2"/>
</svg>
